<?xml version="1.0" encoding="iso-8859-1"?>
<!-- Generator: Adobe Illustrator 19.0.0, SVG Export Plug-In . SVG Version: 6.00 Build 0)  -->
<svg version="1.1" id="Layer_1" xmlns="http://www.w3.org/2000/svg" xmlns:xlink="http://www.w3.org/1999/xlink" x="0px" y="0px"
	 viewBox="0 0 300.665 300.665" style="color:rgb(100,100,100) enable-background:new 0 0 300.665 300.665;" xml:space="preserve">
<g>
	<g>
		<g>
			<path fill="#fff" d="M293.315,55.593H7.35c-4.06,0-7.35,3.29-7.35,7.35c0,57.636,32.608,107.79,80.339,133.01v41.769
				c0,4.06,3.29,7.35,7.35,7.35h125.285c4.06,0,7.35-3.29,7.35-7.35v-41.769c47.732-25.219,80.34-75.375,80.34-133.01
				C300.665,58.883,297.375,55.593,293.315,55.593z M205.625,230.371H95.039v-27.59c18.138,7.201,36.822,10.495,55.293,10.495
				c18.39,0,37.086-3.267,55.293-10.495V230.371z M150.332,198.575c-72.204,0-131.599-56.78-135.435-128.282h270.871
				C281.958,141.319,223.032,198.575,150.332,198.575z"/>
			<path fill="#fff" d="M37.23,105.766c8.912,23.462,25.387,44.063,46.392,58.004c3.378,2.243,7.941,1.327,10.188-2.06
				c2.245-3.38,1.323-7.942-2.059-10.187c-18.467-12.258-32.949-30.36-40.778-50.977c-1.444-3.796-5.692-5.698-9.482-4.262
				C37.698,97.726,35.79,101.971,37.23,105.766z"/>
		</g>
	</g>
</g>
<g>
</g>
<g>
</g>
<g>
</g>
<g>
</g>
<g>
</g>
<g>
</g>
<g>
</g>
<g>
</g>
<g>
</g>
<g>
</g>
<g>
</g>
<g>
</g>
<g>
</g>
<g>
</g>
<g>
</g>
</svg>
