<svg xmlns="http://www.w3.org/2000/svg" viewBox="0 0 246.05 251.65"><g id="katman_2" data-name="katman 2"><g id="katman_1-2" data-name="katman 1"><path fill="#fff" d="M122.34,251.55c-21.23.63-47.21-1.67-72.89-6.82-14.47-2.9-28.16-8-39.81-17.48-13.52-11-12.66-29.78,1.58-40.08,19.16-13.85,40.47-15.45,62.87-11.68,15.88,2.68,29.74,10.48,44,17.25a10.15,10.15,0,0,0,10.26-.3C149.52,181,171.68,172.87,196.28,174c15.89.74,30.3,5.14,42.08,16.62,9.49,9.26,10.4,23.36,1.61,33.11-10.81,12-25.35,16.94-40.33,20.39C175.88,249.63,151.65,251.24,122.34,251.55Z"/><path fill="#fff" d="M88.07,37.46C88.07,17,104.17,0,123.53,0s36.19,17.51,36,37.75c-.15,19-17.76,37.91-35.87,37.44C104.8,74.69,87.58,58.2,88.07,37.46Z"/><path fill="#fff" d="M103.77,176.47c-18.25-14.23-33.54-29.88-35.5-54.2-1.4-17.36,4.2-28.92,22.74-33.92,5.93-1.61,11.84-3.28,17.8-4.77a38.78,38.78,0,0,1,5.63-.59l.71,1.26a70.08,70.08,0,0,1-5.24,6.14c-10.64,10.07-20.57,20.38-21.7,36.27-.8,11.31,2,21.85,6.06,32.08C96.64,164.77,100.39,170.27,103.77,176.47Z"/><path fill="#fff" d="M145.53,174.08c8.16-13.48,11.7-28,12-43.37.33-15.84-6.69-28-18.89-37.72-2.86-2.28-5.14-5.29-7.69-8,.28-.57.57-1.13.85-1.7,3.13.42,6.31.6,9.37,1.32,5,1.17,9.86,3.36,14.91,3.92,14.64,1.64,21.74,16.08,22,28,.46,20.16-9.35,35.47-23.14,48.87C151.91,168.39,148.68,171.2,145.53,174.08Z"/></g></g></svg>